<?xml version="1.0" standalone="no"?>
<svg xmlns="http://www.w3.org/2000/svg" width="200" height="200" viewBox="0 0 1200 1200"><defs><clipPath id="clip-path-dot-color"><circle cx="25.5" cy="476.5" r="20.5" transform="rotate(0,25.5,476.5)"/><circle cx="25.5" cy="517.5" r="20.5" transform="rotate(0,25.5,517.5)"/><circle cx="25.5" cy="599.5" r="20.5" transform="rotate(0,25.5,599.5)"/><circle cx="25.5" cy="722.5" r="20.5" transform="rotate(0,25.5,722.5)"/><circle cx="25.5" cy="845.5" r="20.5" transform="rotate(0,25.5,845.5)"/><circle cx="66.5" cy="353.5" r="20.5" transform="rotate(0,66.5,353.5)"/><circle cx="66.5" cy="394.5" r="20.5" transform="rotate(0,66.5,394.5)"/><circle cx="66.5" cy="640.5" r="20.5" transform="rotate(0,66.5,640.5)"/><circle cx="66.5" cy="804.5" r="20.5" transform="rotate(0,66.5,804.5)"/><circle cx="66.5" cy="845.5" r="20.5" transform="rotate(0,66.5,845.5)"/><circle cx="107.5" cy="394.5" r="20.5" transform="rotate(0,107.5,394.5)"/><circle cx="107.5" cy="435.5" r="20.5" transform="rotate(0,107.5,435.5)"/><circle cx="107.5" cy="476.5" r="20.5" transform="rotate(0,107.5,476.5)"/><circle cx="107.5" cy="517.5" r="20.5" transform="rotate(0,107.5,517.5)"/><circle cx="107.5" cy="558.5" r="20.5" transform="rotate(0,107.5,558.5)"/><circle cx="107.5" cy="599.5" r="20.5" transform="rotate(0,107.5,599.5)"/><circle cx="107.5" cy="640.5" r="20.5" transform="rotate(0,107.5,640.5)"/><circle cx="107.5" cy="763.5" r="20.5" transform="rotate(0,107.5,763.5)"/><circle cx="107.5" cy="804.5" r="20.5" transform="rotate(0,107.5,804.5)"/><circle cx="148.5" cy="353.5" r="20.5" transform="rotate(0,148.5,353.5)"/><circle cx="148.5" cy="435.5" r="20.5" transform="rotate(0,148.5,435.5)"/><circle cx="148.5" cy="476.5" r="20.5" transform="rotate(0,148.5,476.5)"/><circle cx="148.5" cy="517.5" r="20.5" transform="rotate(0,148.5,517.5)"/><circle cx="148.5" cy="558.5" r="20.5" transform="rotate(0,148.5,558.5)"/><circle cx="148.5" cy="681.5" r="20.5" transform="rotate(0,148.5,681.5)"/><circle cx="148.5" cy="722.5" r="20.5" transform="rotate(0,148.5,722.5)"/><circle cx="189.5" cy="353.5" r="20.5" transform="rotate(0,189.5,353.5)"/><circle cx="189.5" cy="435.5" r="20.5" transform="rotate(0,189.5,435.5)"/><circle cx="189.5" cy="476.5" r="20.5" transform="rotate(0,189.5,476.5)"/><circle cx="189.5" cy="517.5" r="20.5" transform="rotate(0,189.5,517.5)"/><circle cx="189.5" cy="558.5" r="20.5" transform="rotate(0,189.5,558.5)"/><circle cx="189.5" cy="640.5" r="20.5" transform="rotate(0,189.5,640.5)"/><circle cx="189.5" cy="722.5" r="20.5" transform="rotate(0,189.5,722.5)"/><circle cx="189.5" cy="763.5" r="20.5" transform="rotate(0,189.5,763.5)"/><circle cx="189.5" cy="804.5" r="20.5" transform="rotate(0,189.5,804.5)"/><circle cx="230.5" cy="394.5" r="20.5" transform="rotate(0,230.5,394.5)"/><circle cx="230.5" cy="435.5" r="20.5" transform="rotate(0,230.5,435.5)"/><circle cx="230.5" cy="640.5" r="20.5" transform="rotate(0,230.5,640.5)"/><circle cx="230.5" cy="722.5" r="20.5" transform="rotate(0,230.5,722.5)"/><circle cx="230.5" cy="845.5" r="20.5" transform="rotate(0,230.5,845.5)"/><circle cx="271.5" cy="353.5" r="20.5" transform="rotate(0,271.5,353.5)"/><circle cx="271.5" cy="435.5" r="20.5" transform="rotate(0,271.5,435.5)"/><circle cx="271.5" cy="517.5" r="20.5" transform="rotate(0,271.5,517.5)"/><circle cx="271.5" cy="599.5" r="20.5" transform="rotate(0,271.5,599.5)"/><circle cx="271.5" cy="681.5" r="20.5" transform="rotate(0,271.5,681.5)"/><circle cx="271.5" cy="763.5" r="20.5" transform="rotate(0,271.5,763.5)"/><circle cx="271.5" cy="845.5" r="20.5" transform="rotate(0,271.5,845.5)"/><circle cx="312.5" cy="353.5" r="20.5" transform="rotate(0,312.5,353.5)"/><circle cx="312.5" cy="435.5" r="20.5" transform="rotate(0,312.5,435.5)"/><circle cx="312.5" cy="476.5" r="20.5" transform="rotate(0,312.5,476.5)"/><circle cx="312.5" cy="599.5" r="20.5" transform="rotate(0,312.5,599.5)"/><circle cx="312.5" cy="681.5" r="20.5" transform="rotate(0,312.5,681.5)"/><circle cx="312.5" cy="763.5" r="20.5" transform="rotate(0,312.5,763.5)"/><circle cx="312.5" cy="804.5" r="20.5" transform="rotate(0,312.5,804.5)"/><circle cx="312.5" cy="845.5" r="20.5" transform="rotate(0,312.5,845.5)"/><circle cx="353.5" cy="66.5" r="20.5" transform="rotate(0,353.5,66.5)"/><circle cx="353.5" cy="148.5" r="20.5" transform="rotate(0,353.5,148.5)"/><circle cx="353.5" cy="189.5" r="20.5" transform="rotate(0,353.5,189.5)"/><circle cx="353.5" cy="230.5" r="20.5" transform="rotate(0,353.5,230.5)"/><circle cx="353.5" cy="271.5" r="20.5" transform="rotate(0,353.5,271.5)"/><circle cx="353.5" cy="353.5" r="20.5" transform="rotate(0,353.5,353.5)"/><circle cx="353.5" cy="435.5" r="20.5" transform="rotate(0,353.5,435.5)"/><circle cx="353.5" cy="476.5" r="20.5" transform="rotate(0,353.5,476.5)"/><circle cx="353.5" cy="517.5" r="20.5" transform="rotate(0,353.5,517.5)"/><circle cx="353.5" cy="558.5" r="20.5" transform="rotate(0,353.5,558.5)"/><circle cx="353.5" cy="599.5" r="20.5" transform="rotate(0,353.5,599.5)"/><circle cx="353.5" cy="681.5" r="20.5" transform="rotate(0,353.5,681.5)"/><circle cx="353.5" cy="763.5" r="20.5" transform="rotate(0,353.5,763.5)"/><circle cx="353.5" cy="845.5" r="20.5" transform="rotate(0,353.5,845.5)"/><circle cx="353.5" cy="886.5" r="20.5" transform="rotate(0,353.5,886.5)"/><circle cx="353.5" cy="927.5" r="20.5" transform="rotate(0,353.5,927.5)"/><circle cx="353.5" cy="1009.5" r="20.5" transform="rotate(0,353.5,1009.5)"/><circle cx="353.5" cy="1050.5" r="20.5" transform="rotate(0,353.5,1050.5)"/><circle cx="353.5" cy="1132.5" r="20.5" transform="rotate(0,353.5,1132.5)"/><circle cx="394.5" cy="66.5" r="20.5" transform="rotate(0,394.5,66.5)"/><circle cx="394.5" cy="189.5" r="20.5" transform="rotate(0,394.5,189.5)"/><circle cx="394.5" cy="230.5" r="20.5" transform="rotate(0,394.5,230.5)"/><circle cx="394.5" cy="312.5" r="20.5" transform="rotate(0,394.5,312.5)"/><circle cx="394.5" cy="353.5" r="20.5" transform="rotate(0,394.5,353.5)"/><circle cx="394.5" cy="435.5" r="20.5" transform="rotate(0,394.5,435.5)"/><circle cx="394.5" cy="476.5" r="20.5" transform="rotate(0,394.5,476.5)"/><circle cx="394.5" cy="558.5" r="20.5" transform="rotate(0,394.5,558.5)"/><circle cx="394.5" cy="640.5" r="20.5" transform="rotate(0,394.5,640.5)"/><circle cx="394.5" cy="681.5" r="20.5" transform="rotate(0,394.5,681.5)"/><circle cx="394.5" cy="722.5" r="20.5" transform="rotate(0,394.5,722.5)"/><circle cx="394.5" cy="763.5" r="20.5" transform="rotate(0,394.5,763.5)"/><circle cx="394.5" cy="804.5" r="20.5" transform="rotate(0,394.5,804.5)"/><circle cx="394.5" cy="845.5" r="20.5" transform="rotate(0,394.5,845.5)"/><circle cx="394.5" cy="968.5" r="20.5" transform="rotate(0,394.5,968.5)"/><circle cx="394.5" cy="1009.5" r="20.5" transform="rotate(0,394.5,1009.5)"/><circle cx="394.5" cy="1050.5" r="20.5" transform="rotate(0,394.5,1050.5)"/><circle cx="394.5" cy="1132.5" r="20.5" transform="rotate(0,394.5,1132.5)"/><circle cx="435.5" cy="66.5" r="20.5" transform="rotate(0,435.5,66.5)"/><circle cx="435.5" cy="148.5" r="20.5" transform="rotate(0,435.5,148.5)"/><circle cx="435.5" cy="271.5" r="20.5" transform="rotate(0,435.5,271.5)"/><circle cx="435.5" cy="886.5" r="20.5" transform="rotate(0,435.5,886.5)"/><circle cx="435.5" cy="927.5" r="20.5" transform="rotate(0,435.5,927.5)"/><circle cx="435.5" cy="968.5" r="20.5" transform="rotate(0,435.5,968.5)"/><circle cx="435.5" cy="1050.5" r="20.5" transform="rotate(0,435.5,1050.5)"/><circle cx="435.5" cy="1091.5" r="20.5" transform="rotate(0,435.5,1091.5)"/><circle cx="476.5" cy="25.5" r="20.5" transform="rotate(0,476.5,25.5)"/><circle cx="476.5" cy="148.5" r="20.5" transform="rotate(0,476.5,148.5)"/><circle cx="476.5" cy="230.5" r="20.5" transform="rotate(0,476.5,230.5)"/><circle cx="476.5" cy="1173.5" r="20.5" transform="rotate(0,476.5,1173.5)"/><circle cx="517.5" cy="25.5" r="20.5" transform="rotate(0,517.5,25.5)"/><circle cx="517.5" cy="66.5" r="20.5" transform="rotate(0,517.5,66.5)"/><circle cx="517.5" cy="148.5" r="20.5" transform="rotate(0,517.5,148.5)"/><circle cx="517.5" cy="189.5" r="20.5" transform="rotate(0,517.5,189.5)"/><circle cx="517.5" cy="271.5" r="20.5" transform="rotate(0,517.5,271.5)"/><circle cx="517.5" cy="312.5" r="20.5" transform="rotate(0,517.5,312.5)"/><circle cx="517.5" cy="394.5" r="20.5" transform="rotate(0,517.5,394.5)"/><circle cx="517.5" cy="845.5" r="20.5" transform="rotate(0,517.5,845.5)"/><circle cx="517.5" cy="886.5" r="20.5" transform="rotate(0,517.5,886.5)"/><circle cx="517.5" cy="927.5" r="20.5" transform="rotate(0,517.5,927.5)"/><circle cx="517.5" cy="1050.5" r="20.5" transform="rotate(0,517.5,1050.5)"/><circle cx="517.5" cy="1132.5" r="20.5" transform="rotate(0,517.5,1132.5)"/><circle cx="558.5" cy="66.5" r="20.5" transform="rotate(0,558.5,66.5)"/><circle cx="558.5" cy="107.5" r="20.5" transform="rotate(0,558.5,107.5)"/><circle cx="558.5" cy="353.5" r="20.5" transform="rotate(0,558.5,353.5)"/><circle cx="558.5" cy="927.5" r="20.5" transform="rotate(0,558.5,927.5)"/><circle cx="558.5" cy="1009.5" r="20.5" transform="rotate(0,558.5,1009.5)"/><circle cx="558.5" cy="1091.5" r="20.5" transform="rotate(0,558.5,1091.5)"/><circle cx="558.5" cy="1173.5" r="20.5" transform="rotate(0,558.5,1173.5)"/><circle cx="599.5" cy="66.5" r="20.5" transform="rotate(0,599.5,66.5)"/><circle cx="599.5" cy="148.5" r="20.5" transform="rotate(0,599.5,148.5)"/><circle cx="599.5" cy="271.5" r="20.5" transform="rotate(0,599.5,271.5)"/><circle cx="599.5" cy="353.5" r="20.5" transform="rotate(0,599.5,353.5)"/><circle cx="599.5" cy="394.5" r="20.5" transform="rotate(0,599.5,394.5)"/><circle cx="599.5" cy="804.5" r="20.5" transform="rotate(0,599.5,804.5)"/><circle cx="599.5" cy="845.5" r="20.5" transform="rotate(0,599.5,845.5)"/><circle cx="599.5" cy="927.5" r="20.5" transform="rotate(0,599.5,927.5)"/><circle cx="599.5" cy="968.5" r="20.5" transform="rotate(0,599.5,968.5)"/><circle cx="599.5" cy="1050.5" r="20.5" transform="rotate(0,599.5,1050.5)"/><circle cx="599.5" cy="1173.5" r="20.5" transform="rotate(0,599.5,1173.5)"/><circle cx="640.5" cy="66.5" r="20.5" transform="rotate(0,640.5,66.5)"/><circle cx="640.5" cy="189.5" r="20.5" transform="rotate(0,640.5,189.5)"/><circle cx="640.5" cy="230.5" r="20.5" transform="rotate(0,640.5,230.5)"/><circle cx="640.5" cy="312.5" r="20.5" transform="rotate(0,640.5,312.5)"/><circle cx="640.5" cy="804.5" r="20.5" transform="rotate(0,640.5,804.5)"/><circle cx="640.5" cy="886.5" r="20.5" transform="rotate(0,640.5,886.5)"/><circle cx="640.5" cy="927.5" r="20.5" transform="rotate(0,640.5,927.5)"/><circle cx="640.5" cy="1009.5" r="20.5" transform="rotate(0,640.5,1009.5)"/><circle cx="640.5" cy="1050.5" r="20.5" transform="rotate(0,640.5,1050.5)"/><circle cx="640.5" cy="1091.5" r="20.5" transform="rotate(0,640.5,1091.5)"/><circle cx="640.5" cy="1132.5" r="20.5" transform="rotate(0,640.5,1132.5)"/><circle cx="681.5" cy="25.5" r="20.5" transform="rotate(0,681.5,25.5)"/><circle cx="681.5" cy="66.5" r="20.5" transform="rotate(0,681.5,66.5)"/><circle cx="681.5" cy="271.5" r="20.5" transform="rotate(0,681.5,271.5)"/><circle cx="681.5" cy="968.5" r="20.5" transform="rotate(0,681.5,968.5)"/><circle cx="681.5" cy="1050.5" r="20.5" transform="rotate(0,681.5,1050.5)"/><circle cx="681.5" cy="1173.5" r="20.5" transform="rotate(0,681.5,1173.5)"/><circle cx="722.5" cy="25.5" r="20.5" transform="rotate(0,722.5,25.5)"/><circle cx="722.5" cy="66.5" r="20.5" transform="rotate(0,722.5,66.5)"/><circle cx="722.5" cy="107.5" r="20.5" transform="rotate(0,722.5,107.5)"/><circle cx="722.5" cy="353.5" r="20.5" transform="rotate(0,722.5,353.5)"/><circle cx="722.5" cy="804.5" r="20.5" transform="rotate(0,722.5,804.5)"/><circle cx="722.5" cy="886.5" r="20.5" transform="rotate(0,722.5,886.5)"/><circle cx="722.5" cy="1009.5" r="20.5" transform="rotate(0,722.5,1009.5)"/><circle cx="722.5" cy="1050.5" r="20.5" transform="rotate(0,722.5,1050.5)"/><circle cx="722.5" cy="1091.5" r="20.5" transform="rotate(0,722.5,1091.5)"/><circle cx="763.5" cy="25.5" r="20.5" transform="rotate(0,763.5,25.5)"/><circle cx="763.5" cy="66.5" r="20.5" transform="rotate(0,763.5,66.5)"/><circle cx="763.5" cy="107.5" r="20.5" transform="rotate(0,763.5,107.5)"/><circle cx="763.5" cy="189.5" r="20.5" transform="rotate(0,763.5,189.5)"/><circle cx="763.5" cy="230.5" r="20.5" transform="rotate(0,763.5,230.5)"/><circle cx="763.5" cy="271.5" r="20.5" transform="rotate(0,763.5,271.5)"/><circle cx="763.5" cy="312.5" r="20.5" transform="rotate(0,763.5,312.5)"/><circle cx="763.5" cy="353.5" r="20.5" transform="rotate(0,763.5,353.5)"/><circle cx="763.5" cy="804.5" r="20.5" transform="rotate(0,763.5,804.5)"/><circle cx="763.5" cy="1173.5" r="20.5" transform="rotate(0,763.5,1173.5)"/><circle cx="804.5" cy="25.5" r="20.5" transform="rotate(0,804.5,25.5)"/><circle cx="804.5" cy="66.5" r="20.5" transform="rotate(0,804.5,66.5)"/><circle cx="804.5" cy="189.5" r="20.5" transform="rotate(0,804.5,189.5)"/><circle cx="804.5" cy="230.5" r="20.5" transform="rotate(0,804.5,230.5)"/><circle cx="804.5" cy="312.5" r="20.5" transform="rotate(0,804.5,312.5)"/><circle cx="804.5" cy="353.5" r="20.5" transform="rotate(0,804.5,353.5)"/><circle cx="804.5" cy="394.5" r="20.5" transform="rotate(0,804.5,394.5)"/><circle cx="804.5" cy="845.5" r="20.5" transform="rotate(0,804.5,845.5)"/><circle cx="804.5" cy="886.5" r="20.5" transform="rotate(0,804.5,886.5)"/><circle cx="804.5" cy="927.5" r="20.5" transform="rotate(0,804.5,927.5)"/><circle cx="804.5" cy="968.5" r="20.5" transform="rotate(0,804.5,968.5)"/><circle cx="804.5" cy="1091.5" r="20.5" transform="rotate(0,804.5,1091.5)"/><circle cx="845.5" cy="25.5" r="20.5" transform="rotate(0,845.5,25.5)"/><circle cx="845.5" cy="66.5" r="20.5" transform="rotate(0,845.5,66.5)"/><circle cx="845.5" cy="107.5" r="20.5" transform="rotate(0,845.5,107.5)"/><circle cx="845.5" cy="271.5" r="20.5" transform="rotate(0,845.5,271.5)"/><circle cx="845.5" cy="312.5" r="20.5" transform="rotate(0,845.5,312.5)"/><circle cx="845.5" cy="353.5" r="20.5" transform="rotate(0,845.5,353.5)"/><circle cx="845.5" cy="394.5" r="20.5" transform="rotate(0,845.5,394.5)"/><circle cx="845.5" cy="435.5" r="20.5" transform="rotate(0,845.5,435.5)"/><circle cx="845.5" cy="517.5" r="20.5" transform="rotate(0,845.5,517.5)"/><circle cx="845.5" cy="558.5" r="20.5" transform="rotate(0,845.5,558.5)"/><circle cx="845.5" cy="640.5" r="20.5" transform="rotate(0,845.5,640.5)"/><circle cx="845.5" cy="681.5" r="20.5" transform="rotate(0,845.5,681.5)"/><circle cx="845.5" cy="722.5" r="20.5" transform="rotate(0,845.5,722.5)"/><circle cx="845.5" cy="804.5" r="20.5" transform="rotate(0,845.5,804.5)"/><circle cx="845.5" cy="845.5" r="20.5" transform="rotate(0,845.5,845.5)"/><circle cx="845.5" cy="886.5" r="20.5" transform="rotate(0,845.5,886.5)"/><circle cx="845.5" cy="927.5" r="20.5" transform="rotate(0,845.5,927.5)"/><circle cx="845.5" cy="968.5" r="20.5" transform="rotate(0,845.5,968.5)"/><circle cx="845.5" cy="1009.5" r="20.5" transform="rotate(0,845.5,1009.5)"/><circle cx="845.5" cy="1091.5" r="20.5" transform="rotate(0,845.5,1091.5)"/><circle cx="886.5" cy="353.5" r="20.5" transform="rotate(0,886.5,353.5)"/><circle cx="886.5" cy="435.5" r="20.5" transform="rotate(0,886.5,435.5)"/><circle cx="886.5" cy="476.5" r="20.5" transform="rotate(0,886.5,476.5)"/><circle cx="886.5" cy="599.5" r="20.5" transform="rotate(0,886.5,599.5)"/><circle cx="886.5" cy="640.5" r="20.5" transform="rotate(0,886.5,640.5)"/><circle cx="886.5" cy="763.5" r="20.5" transform="rotate(0,886.5,763.5)"/><circle cx="886.5" cy="845.5" r="20.5" transform="rotate(0,886.5,845.5)"/><circle cx="886.5" cy="1009.5" r="20.5" transform="rotate(0,886.5,1009.5)"/><circle cx="886.5" cy="1050.5" r="20.5" transform="rotate(0,886.5,1050.5)"/><circle cx="886.5" cy="1091.5" r="20.5" transform="rotate(0,886.5,1091.5)"/><circle cx="927.5" cy="476.5" r="20.5" transform="rotate(0,927.5,476.5)"/><circle cx="927.5" cy="517.5" r="20.5" transform="rotate(0,927.5,517.5)"/><circle cx="927.5" cy="599.5" r="20.5" transform="rotate(0,927.5,599.5)"/><circle cx="927.5" cy="640.5" r="20.5" transform="rotate(0,927.5,640.5)"/><circle cx="927.5" cy="722.5" r="20.5" transform="rotate(0,927.5,722.5)"/><circle cx="927.5" cy="763.5" r="20.5" transform="rotate(0,927.5,763.5)"/><circle cx="927.5" cy="804.5" r="20.5" transform="rotate(0,927.5,804.5)"/><circle cx="927.5" cy="845.5" r="20.5" transform="rotate(0,927.5,845.5)"/><circle cx="927.5" cy="927.5" r="20.5" transform="rotate(0,927.5,927.5)"/><circle cx="927.5" cy="1009.5" r="20.5" transform="rotate(0,927.5,1009.5)"/><circle cx="927.5" cy="1091.5" r="20.5" transform="rotate(0,927.5,1091.5)"/><circle cx="968.5" cy="353.5" r="20.5" transform="rotate(0,968.5,353.5)"/><circle cx="968.5" cy="435.5" r="20.5" transform="rotate(0,968.5,435.5)"/><circle cx="968.5" cy="558.5" r="20.5" transform="rotate(0,968.5,558.5)"/><circle cx="968.5" cy="599.5" r="20.5" transform="rotate(0,968.5,599.5)"/><circle cx="968.5" cy="640.5" r="20.5" transform="rotate(0,968.5,640.5)"/><circle cx="968.5" cy="722.5" r="20.5" transform="rotate(0,968.5,722.5)"/><circle cx="968.5" cy="804.5" r="20.5" transform="rotate(0,968.5,804.5)"/><circle cx="968.5" cy="845.5" r="20.5" transform="rotate(0,968.5,845.5)"/><circle cx="968.5" cy="1009.5" r="20.5" transform="rotate(0,968.5,1009.5)"/><circle cx="968.5" cy="1050.5" r="20.5" transform="rotate(0,968.5,1050.5)"/><circle cx="968.5" cy="1132.5" r="20.5" transform="rotate(0,968.5,1132.5)"/><circle cx="1009.5" cy="353.5" r="20.5" transform="rotate(0,1009.5,353.5)"/><circle cx="1009.5" cy="435.5" r="20.5" transform="rotate(0,1009.5,435.5)"/><circle cx="1009.5" cy="517.5" r="20.5" transform="rotate(0,1009.5,517.5)"/><circle cx="1009.5" cy="681.5" r="20.5" transform="rotate(0,1009.5,681.5)"/><circle cx="1009.5" cy="722.5" r="20.5" transform="rotate(0,1009.5,722.5)"/><circle cx="1009.5" cy="763.5" r="20.5" transform="rotate(0,1009.5,763.5)"/><circle cx="1009.5" cy="804.5" r="20.5" transform="rotate(0,1009.5,804.5)"/><circle cx="1009.5" cy="845.5" r="20.5" transform="rotate(0,1009.5,845.5)"/><circle cx="1009.5" cy="886.5" r="20.5" transform="rotate(0,1009.5,886.5)"/><circle cx="1009.5" cy="927.5" r="20.5" transform="rotate(0,1009.5,927.5)"/><circle cx="1009.5" cy="968.5" r="20.5" transform="rotate(0,1009.5,968.5)"/><circle cx="1009.5" cy="1009.5" r="20.5" transform="rotate(0,1009.5,1009.5)"/><circle cx="1009.5" cy="1132.5" r="20.5" transform="rotate(0,1009.5,1132.5)"/><circle cx="1009.5" cy="1173.5" r="20.5" transform="rotate(0,1009.5,1173.5)"/><circle cx="1050.5" cy="353.5" r="20.5" transform="rotate(0,1050.5,353.5)"/><circle cx="1050.5" cy="394.5" r="20.5" transform="rotate(0,1050.5,394.5)"/><circle cx="1050.5" cy="435.5" r="20.5" transform="rotate(0,1050.5,435.5)"/><circle cx="1050.5" cy="476.5" r="20.5" transform="rotate(0,1050.5,476.5)"/><circle cx="1050.5" cy="599.5" r="20.5" transform="rotate(0,1050.5,599.5)"/><circle cx="1050.5" cy="681.5" r="20.5" transform="rotate(0,1050.5,681.5)"/><circle cx="1050.5" cy="968.5" r="20.5" transform="rotate(0,1050.5,968.5)"/><circle cx="1050.5" cy="1050.5" r="20.5" transform="rotate(0,1050.5,1050.5)"/><circle cx="1050.5" cy="1132.5" r="20.5" transform="rotate(0,1050.5,1132.5)"/><circle cx="1091.5" cy="394.5" r="20.5" transform="rotate(0,1091.5,394.5)"/><circle cx="1091.5" cy="435.5" r="20.5" transform="rotate(0,1091.5,435.5)"/><circle cx="1091.5" cy="517.5" r="20.5" transform="rotate(0,1091.5,517.5)"/><circle cx="1091.5" cy="558.5" r="20.5" transform="rotate(0,1091.5,558.5)"/><circle cx="1091.5" cy="681.5" r="20.5" transform="rotate(0,1091.5,681.5)"/><circle cx="1091.5" cy="722.5" r="20.5" transform="rotate(0,1091.5,722.5)"/><circle cx="1091.5" cy="763.5" r="20.5" transform="rotate(0,1091.5,763.5)"/><circle cx="1091.5" cy="845.5" r="20.5" transform="rotate(0,1091.5,845.5)"/><circle cx="1091.5" cy="886.5" r="20.5" transform="rotate(0,1091.5,886.5)"/><circle cx="1091.5" cy="968.5" r="20.5" transform="rotate(0,1091.5,968.5)"/><circle cx="1091.5" cy="1009.5" r="20.5" transform="rotate(0,1091.5,1009.5)"/><circle cx="1091.5" cy="1132.5" r="20.5" transform="rotate(0,1091.5,1132.5)"/><circle cx="1091.5" cy="1173.5" r="20.5" transform="rotate(0,1091.5,1173.5)"/><circle cx="1132.5" cy="353.5" r="20.5" transform="rotate(0,1132.5,353.5)"/><circle cx="1132.5" cy="394.5" r="20.5" transform="rotate(0,1132.5,394.5)"/><circle cx="1132.5" cy="435.5" r="20.5" transform="rotate(0,1132.5,435.5)"/><circle cx="1132.5" cy="558.5" r="20.5" transform="rotate(0,1132.5,558.5)"/><circle cx="1132.5" cy="640.5" r="20.5" transform="rotate(0,1132.5,640.5)"/><circle cx="1132.5" cy="763.5" r="20.5" transform="rotate(0,1132.5,763.5)"/><circle cx="1132.5" cy="804.5" r="20.5" transform="rotate(0,1132.5,804.5)"/><circle cx="1132.5" cy="927.5" r="20.5" transform="rotate(0,1132.5,927.5)"/><circle cx="1132.5" cy="1009.5" r="20.5" transform="rotate(0,1132.5,1009.5)"/><circle cx="1132.5" cy="1050.5" r="20.5" transform="rotate(0,1132.5,1050.5)"/><circle cx="1132.5" cy="1091.5" r="20.5" transform="rotate(0,1132.5,1091.5)"/><circle cx="1132.5" cy="1173.5" r="20.5" transform="rotate(0,1132.5,1173.5)"/><circle cx="1173.5" cy="476.5" r="20.5" transform="rotate(0,1173.5,476.5)"/><circle cx="1173.5" cy="558.5" r="20.5" transform="rotate(0,1173.5,558.5)"/><circle cx="1173.5" cy="763.5" r="20.5" transform="rotate(0,1173.5,763.5)"/><circle cx="1173.5" cy="845.5" r="20.5" transform="rotate(0,1173.5,845.5)"/><circle cx="1173.5" cy="886.5" r="20.5" transform="rotate(0,1173.5,886.5)"/><circle cx="1173.5" cy="968.5" r="20.5" transform="rotate(0,1173.5,968.5)"/><circle cx="1173.5" cy="1009.5" r="20.5" transform="rotate(0,1173.5,1009.5)"/></clipPath><clipPath id="clip-path-corners-square-color-0-0"><path clip-rule="evenodd" d="M 5 107.5v 82a 102.5 102.5, 0, 0, 0, 102.5 102.5h 82a 102.5 102.5, 0, 0, 0, 102.5 -102.5v -82a 102.5 102.5, 0, 0, 0, -102.5 -102.5h -82a 102.5 102.5, 0, 0, 0, -102.5 102.5M 107.5 46h 82a 61.5 61.5, 0, 0, 1, 61.5 61.5v 82a 61.5 61.5, 0, 0, 1, -61.5 61.5h -82a 61.5 61.5, 0, 0, 1, -61.5 -61.5v -82a 61.5 61.5, 0, 0, 1, 61.5 -61.5" transform="rotate(0,148.5,148.5)"/></clipPath><clipPath id="clip-path-corners-dot-color-0-0"><circle cx="148.5" cy="148.5" r="61.5" transform="rotate(0,148.5,148.5)"/></clipPath><clipPath id="clip-path-corners-square-color-1-0"><path clip-rule="evenodd" d="M 907 107.5v 82a 102.5 102.5, 0, 0, 0, 102.5 102.5h 82a 102.5 102.5, 0, 0, 0, 102.5 -102.5v -82a 102.5 102.5, 0, 0, 0, -102.5 -102.5h -82a 102.5 102.5, 0, 0, 0, -102.5 102.5M 1009.5 46h 82a 61.5 61.5, 0, 0, 1, 61.5 61.5v 82a 61.5 61.5, 0, 0, 1, -61.5 61.5h -82a 61.5 61.5, 0, 0, 1, -61.5 -61.5v -82a 61.5 61.5, 0, 0, 1, 61.5 -61.5" transform="rotate(90,1050.5,148.5)"/></clipPath><clipPath id="clip-path-corners-dot-color-1-0"><circle cx="1050.5" cy="148.5" r="61.5" transform="rotate(90,1050.5,148.5)"/></clipPath><clipPath id="clip-path-corners-square-color-0-1"><path clip-rule="evenodd" d="M 5 1009.5v 82a 102.5 102.5, 0, 0, 0, 102.5 102.5h 82a 102.5 102.5, 0, 0, 0, 102.5 -102.5v -82a 102.5 102.5, 0, 0, 0, -102.5 -102.5h -82a 102.5 102.5, 0, 0, 0, -102.5 102.5M 107.5 948h 82a 61.5 61.5, 0, 0, 1, 61.5 61.5v 82a 61.5 61.5, 0, 0, 1, -61.5 61.5h -82a 61.5 61.5, 0, 0, 1, -61.5 -61.5v -82a 61.5 61.5, 0, 0, 1, 61.5 -61.5" transform="rotate(-90,148.5,1050.5)"/></clipPath><clipPath id="clip-path-corners-dot-color-0-1"><circle cx="148.5" cy="1050.5" r="61.5" transform="rotate(-90,148.5,1050.5)"/></clipPath></defs><rect x="0" y="0" height="1200" width="1200" clip-path="url('#clip-path-background-color')" fill="transparent"/><rect x="5" y="5" height="1189" width="1189" clip-path="url('#clip-path-dot-color')" fill="#1B1817"/><rect x="5" y="5" height="287" width="287" clip-path="url('#clip-path-corners-square-color-0-0')" fill="#1B1817"/><rect x="87" y="87" height="123" width="123" clip-path="url('#clip-path-corners-dot-color-0-0')" fill="#1B1817"/><rect x="907" y="5" height="287" width="287" clip-path="url('#clip-path-corners-square-color-1-0')" fill="#1B1817"/><rect x="989" y="87" height="123" width="123" clip-path="url('#clip-path-corners-dot-color-1-0')" fill="#1B1817"/><rect x="5" y="907" height="287" width="287" clip-path="url('#clip-path-corners-square-color-0-1')" fill="#1B1817"/><rect x="87" y="989" height="123" width="123" clip-path="url('#clip-path-corners-dot-color-0-1')" fill="#1B1817"/><image href="data:image/svg+xml,%3Csvg width='44' height='43' viewBox='0 0 44 43' fill='none' xmlns='http://www.w3.org/2000/svg'%3E%3Cpath fill-rule='evenodd' clip-rule='evenodd' d='M21.7173 -2.56102e-06C9.724 -2.56102e-06 0 9.724 0 21.72C0 31.316 6.22267 39.456 14.8533 42.3293C15.94 42.528 16.336 41.8573 16.336 41.2813C16.336 40.7667 16.3173 39.4 16.3067 37.588C10.2653 38.9 8.99067 34.676 8.99067 34.676C8.00267 32.168 6.57867 31.5 6.57867 31.5C4.60667 30.152 6.728 30.1787 6.728 30.1787C8.908 30.3333 10.0547 32.4173 10.0547 32.4173C11.992 35.736 15.1387 34.7773 16.376 34.2227C16.5733 32.8187 17.1333 31.8613 17.7547 31.3187C12.932 30.7707 7.86133 28.9067 7.86133 20.584C7.86133 18.2133 8.708 16.2747 10.0973 14.756C9.87333 14.2067 9.128 11.9987 10.3093 9.008C10.3093 9.008 12.1333 8.424 16.2827 11.2347C18.0147 10.7533 19.8733 10.512 21.72 10.504C23.564 10.512 25.4227 10.7533 27.1573 11.2347C31.304 8.424 33.124 9.008 33.124 9.008C34.3093 11.9987 33.564 14.2067 33.34 14.756C34.732 16.2747 35.5733 18.2133 35.5733 20.584C35.5733 28.928 30.4947 30.764 25.656 31.3013C26.436 31.972 27.1307 33.2973 27.1307 35.324C27.1307 38.2267 27.104 40.5693 27.104 41.2813C27.104 41.8627 27.4947 42.5387 28.5973 42.3267C37.2213 39.448 43.4387 31.3133 43.4387 21.72C43.4387 9.724 33.7133 -2.56102e-06 21.7173 -2.56102e-06Z' fill='%231B1817'/%3E%3C/svg%3E%0A" x="425" y="429" width="349px" height="341px"/></svg>